<svg height="472pt" viewBox="-3 0 471 472" width="472pt" xmlns="http://www.w3.org/2000/svg"><path d="m293.835938 456-21.335938-64h-80l-21.335938 64h-26.664062v16h176v-16zm0 0" fill="#dedede"/><path d="m32.5 48c-17.671875 0-32 14.328125-32 32v248h464v-248c0-17.671875-14.328125-32-32-32zm0 0" fill="#4398d1"/><path d="m.5 328v32c0 17.671875 14.328125 32 32 32h400c17.671875 0 32-14.328125 32-32v-32zm0 0" fill="#dedede"/><path d="m384.5 0h-304c-17.671875 0-32 14.328125-32 32v296h368v-296c0-17.671875-14.328125-32-32-32zm0 0" fill="#87ced9"/><path d="m248.5 176-56 32-8 72 72-8 32-56zm0 0" fill="#fdb62f"/><path d="m232.5 216c-8.835938 0-16 7.164062-16 16 .019531 1.382812.21875 2.757812.601562 4.089844l-38.257812 38.253906 11.3125 11.3125 38.253906-38.257812c1.332032.382812 2.707032.582031 4.089844.601562 8.835938 0 16-7.164062 16-16s-7.164062-16-16-16zm0 0" fill="#fd882f"/><path d="m248.5 176 40 40c36.941406-21.109375 69.167969-49.5625 94.695312-83.601562l77.703126-103.597657c2.339843-3.117187 3.601562-6.90625 3.601562-10.800781 0-9.941406-8.058594-18-18-18-3.894531 0-7.683594 1.261719-10.800781 3.601562l-103.597657 77.703126c-34.039062 25.527343-62.492187 57.753906-83.601562 94.695312zm0 0" fill="#8f583c"/><path d="m343.171875 123.617188-10.398437-12.191407c4.4375-3.773437 8.996093-7.414062 13.679687-10.921875l9.597656 12.800782c-4.398437 3.320312-8.691406 6.757812-12.878906 10.3125zm0 0" fill="#b37b5f"/><path d="m308.859375 158.535156-12.359375-10.136718c7.480469-9.152344 15.515625-17.835938 24.0625-26l11.035156 11.585937c-8.078125 7.707031-15.671875 15.90625-22.738281 24.550781zm0 0" fill="#b37b5f"/><path d="m259.507812 158.320312 46.671876 46.671876c4.519531-2.992188 8.949218-6.101563 13.296874-9.328126l-50.640624-50.640624c-3.222657 4.351562-6.332032 8.785156-9.328126 13.296874zm0 0" fill="#73442e"/><g fill="#5eb3d1"><path d="m80.5 32h16v16h-16zm0 0"/><path d="m112.5 32h16v16h-16zm0 0"/><path d="m144.5 32h16v16h-16zm0 0"/><path d="m80.5 72h208v16h-208zm0 0"/><path d="m144.5 112h104v16h-104zm0 0"/><path d="m80.5 152h144v16h-144zm0 0"/><path d="m80.5 192h88v16h-88zm0 0"/><path d="m80.5 232h80v16h-80zm0 0"/><path d="m80.5 272h80v16h-80zm0 0"/><path d="m352.5 192h32v16h-32zm0 0"/><path d="m304.5 232h80v16h-80zm0 0"/><path d="m288.5 272h96v16h-96zm0 0"/><path d="m80.5 112h48v16h-48zm0 0"/></g><path d="m280.5 416-8-24h-80l-8 24zm0 0" fill="#c7c7c7"/><path d="m48.5 304h368v24h-368zm0 0" fill="#71c4d1"/></svg>