<svg height="512pt" viewBox="0 -24 512 512" width="512pt" xmlns="http://www.w3.org/2000/svg"><path d="m320.265625 375.433594h-128.53125c-8.285156 0-15-6.714844-15-15s6.714844-15 15-15h128.53125c8.285156 0 15 6.714844 15 15s-6.714844 15-15 15zm0 0" fill="#fff36e"/><path d="m320.265625 345.433594h-63.9375v30h63.9375c8.285156 0 15-6.714844 15-15s-6.714844-15-15-15zm0 0" fill="#ffcc01"/><path d="m151.945312 301.632812c-2.605468 0-5.242187-.675781-7.644531-2.101562-7.121093-4.230469-9.46875-13.433594-5.238281-20.558594l62.5-105.269531c4.226562-7.121094 13.429688-9.46875 20.554688-5.238281 7.125 4.226562 9.46875 13.433594 5.242187 20.554687l-62.5 105.269531c-2.804687 4.722657-7.792969 7.34375-12.914063 7.34375zm0 0" fill="#fff36e"/><path d="m360.054688 301.632812c-5.121094 0-10.109376-2.621093-12.914063-7.34375l-62.5-105.269531c-4.226563-7.121093-1.882813-16.324219 5.242187-20.554687 7.125-4.226563 16.328126-1.882813 20.554688 5.238281l62.5 105.269531c4.230469 7.125 1.882812 16.328125-5.238281 20.558594-2.402344 1.421875-5.042969 2.101562-7.644531 2.101562zm0 0" fill="#ffcc01"/><path d="m103.367188 463.804688c-56.996094 0-103.367188-46.371094-103.367188-103.367188s46.371094-103.367188 103.367188-103.367188c56.996093 0 103.367187 46.371094 103.367187 103.367188s-46.371094 103.367188-103.367187 103.367188zm0 0" fill="#0051bd"/><path d="m103.371094 257.070312v206.734376c56.992187-.003907 103.363281-46.371094 103.363281-103.367188s-46.371094-103.363281-103.363281-103.367188zm0 0" fill="#00347b"/><path d="m103.367188 384.308594c-21.792969 0-39.519532-17.726563-39.519532-39.519532 0-21.789062 17.726563-39.515624 39.519532-39.515624 21.789062 0 39.519531 17.726562 39.519531 39.515624 0 21.792969-17.730469 39.519532-39.519531 39.519532zm0 0" fill="#ffece3"/><path d="m103.367188 305.269531v79.039063c21.789062 0 39.519531-17.726563 39.519531-39.519532 0-21.789062-17.730469-39.519531-39.519531-39.519531zm0 0" fill="#ffdccd"/><path d="m158.53125 439.480469v8.332031c-15.972656 10.128906-34.902344 15.988281-55.160156 15.988281-20.269532 0-39.199219-5.859375-55.171875-15.988281v-8.332031c0-30.46875 24.699219-55.167969 55.171875-55.167969 30.457031 0 55.160156 24.699219 55.160156 55.167969zm0 0" fill="#00eccf"/><path d="m158.53125 439.480469v8.332031c-15.972656 10.128906-34.902344 15.988281-55.160156 15.988281v-79.488281c30.457031 0 55.160156 24.699219 55.160156 55.167969zm0 0" fill="#00cab1"/><path d="m256 206.734375c-56.996094 0-103.367188-46.371094-103.367188-103.367187 0-56.996094 46.371094-103.367188 103.367188-103.367188s103.367188 46.371094 103.367188 103.367188c0 56.996093-46.371094 103.367187-103.367188 103.367187zm0 0" fill="#ff5e91"/><path d="m256.003906 0v206.734375c56.992188-.003906 103.363282-46.371094 103.363282-103.367187 0-56.996094-46.371094-103.36328175-103.363282-103.367188zm0 0" fill="#cf0050"/><path d="m256 127.238281c-21.789062 0-39.519531-17.726562-39.519531-39.519531 0-21.789062 17.730469-39.519531 39.519531-39.519531s39.519531 17.730469 39.519531 39.519531c0 21.792969-17.730469 39.519531-39.519531 39.519531zm0 0" fill="#ffece3"/><path d="m256 48.199219v79.039062c21.789062 0 39.519531-17.726562 39.519531-39.519531 0-21.789062-17.730469-39.519531-39.519531-39.519531zm0 0" fill="#ffdccd"/><path d="m311.164062 182.410156v8.328125c-15.972656 10.132813-34.902343 15.992188-55.160156 15.992188-20.269531 0-39.199218-5.859375-55.171875-15.992188v-8.328125c0-30.46875 24.699219-55.171875 55.171875-55.171875 30.460938 0 55.160156 24.703125 55.160156 55.171875zm0 0" fill="#0051bd"/><path d="m311.164062 182.410156v8.328125c-15.972656 10.132813-34.902343 15.992188-55.160156 15.992188v-79.492188c30.460938 0 55.160156 24.703125 55.160156 55.171875zm0 0" fill="#00347b"/><path d="m408.632812 463.804688c-56.996093 0-103.367187-46.371094-103.367187-103.367188s46.371094-103.367188 103.367187-103.367188c56.996094 0 103.367188 46.371094 103.367188 103.367188s-46.371094 103.367188-103.367188 103.367188zm0 0" fill="#00eccf"/><path d="m408.636719 257.070312v206.734376c56.996093-.003907 103.363281-46.371094 103.363281-103.367188s-46.367188-103.363281-103.363281-103.367188zm0 0" fill="#00cab1"/><path d="m408.632812 384.308594c-21.789062 0-39.519531-17.726563-39.519531-39.519532 0-21.789062 17.730469-39.515624 39.519531-39.515624 21.792969 0 39.519532 17.726562 39.519532 39.515624 0 21.792969-17.726563 39.519532-39.519532 39.519532zm0 0" fill="#e8afa3"/><path d="m408.632812 305.269531v79.039063c21.792969 0 39.519532-17.726563 39.519532-39.519532 0-21.789062-17.726563-39.519531-39.519532-39.519531zm0 0" fill="#d19188"/><path d="m463.796875 439.480469v8.332031c-15.96875 10.128906-34.898437 15.988281-55.160156 15.988281-20.269531 0-39.199219-5.859375-55.167969-15.988281v-8.332031c0-30.46875 24.699219-55.167969 55.167969-55.167969 30.460937 0 55.160156 24.699219 55.160156 55.167969zm0 0" fill="#fff36e"/><path d="m463.796875 439.480469v8.332031c-15.96875 10.128906-34.898437 15.988281-55.160156 15.988281v-79.488281c30.460937 0 55.160156 24.699219 55.160156 55.167969zm0 0" fill="#ffcc01"/></svg>